<svg width="720" height="960" viewBox="0 0 720 960" fill="none" xmlns="http://www.w3.org/2000/svg">
  <rect width="720" height="960" rx="44" fill="#14141A"/>
  <rect width="720" height="960" rx="44" fill="url(#bg)"/>
  <circle cx="545" cy="189" r="168" fill="rgba(251,146,60,0.18)"/>
  <circle cx="199" cy="815" r="202" fill="rgba(244,114,182,0.15)"/>
  <rect x="60" y="62" width="600" height="836" rx="34" fill="url(#panel)" stroke="#FFFFFF" stroke-opacity="0.18"/>
  <path d="M230 733C238 600 283 446 360 446C437 446 482 600 490 733H230Z" fill="#E8D5C8"/>
  <path d="M280 427C280 351 317 297 360 297C403 297 440 351 440 427C440 501 403 557 360 557C317 557 280 501 280 427Z" fill="#DCC4B6"/>
  <path d="M292 392C304 320 335 262 360 262C385 262 416 320 428 392C406 365 385 351 360 351C335 351 314 365 292 392Z" fill="#1A1410"/>
  <path d="M240 742C252 659 294 589 360 589C426 589 468 659 480 742" stroke="#FB923C" stroke-width="72" stroke-linecap="round"/>
  <path d="M200 586L305 540" stroke="#F472B6" stroke-width="34" stroke-linecap="round"/>
  <path d="M515 586L410 540" stroke="#F472B6" stroke-width="34" stroke-linecap="round"/>
  <text x="90" y="132" fill="#FED7AA" font-family="Arial, sans-serif" font-size="34" letter-spacing="7">TREND</text>
  <text x="92" y="790" fill="#FFFFFF" font-family="Arial, sans-serif" font-size="72" font-weight="700">QUIET LUXURY</text>
  <text x="92" y="842" fill="#FCE7F3" font-family="Arial, sans-serif" font-size="28">Harry Styles-inspired · unlined · fine knits</text>
  <defs>
    <linearGradient id="bg" x1="92" y1="53" x2="636" y2="913" gradientUnits="userSpaceOnUse">
      <stop stop-color="#1E1E28"/>
      <stop offset="0.5" stop-color="#14141A"/>
      <stop offset="1" stop-color="#0F0F14"/>
    </linearGradient>
    <linearGradient id="panel" x1="360" y1="62" x2="360" y2="898" gradientUnits="userSpaceOnUse">
      <stop stop-color="#FFFFFF" stop-opacity="0.12"/>
      <stop offset="1" stop-color="#FFFFFF" stop-opacity="0.04"/>
    </linearGradient>
  </defs>
</svg>