<svg width="720" height="960" viewBox="0 0 720 960" fill="none" xmlns="http://www.w3.org/2000/svg">
  <rect width="720" height="960" rx="44" fill="#0B1320"/>
  <rect width="720" height="960" rx="44" fill="url(#bg)"/>
  <circle cx="533" cy="176" r="168" fill="#65D7FF" fill-opacity="0.26"/>
  <circle cx="193" cy="804" r="214" fill="#4E6BFF" fill-opacity="0.22"/>
  <rect x="60" y="62" width="600" height="836" rx="34" fill="url(#panel)" stroke="#FFFFFF" stroke-opacity="0.18"/>
  <path d="M212 744C232 621 286 540 360 540C434 540 488 621 508 744H212Z" fill="#DCEBFF"/>
  <path d="M274 408C274 334 314 282 360 282C406 282 446 334 446 408C446 481 406 541 360 541C314 541 274 481 274 408Z" fill="#D3E6FF"/>
  <path d="M284 374C304 314 334 256 360 256C386 256 416 314 436 374C416 347 391 334 360 334C329 334 304 347 284 374Z" fill="#0F2136"/>
  <path d="M226 756C250 634 301 572 360 572C419 572 470 634 494 756" stroke="#EFF6FF" stroke-width="90" stroke-linecap="round"/>
  <path d="M233 638L487 638" stroke="#F7C84B" stroke-width="22" stroke-linecap="round"/>
  <path d="M185 684L535 684" stroke="#F7C84B" stroke-width="18" stroke-linecap="round"/>
  <text x="90" y="132" fill="#F5F1EC" font-family="Arial, sans-serif" font-size="34" letter-spacing="7">GLOBAL</text>
  <text x="92" y="790" fill="#FFFFFF" font-family="Arial, sans-serif" font-size="68" font-weight="700">OFF-DUTY TRACK</text>
  <text x="92" y="842" fill="#D5EBFF" font-family="Arial, sans-serif" font-size="28">Kendall + Hailey vibe &#8226; track pants &#8226; retro sneakers</text>
  <defs>
    <linearGradient id="bg" x1="83" y1="62" x2="638" y2="896" gradientUnits="userSpaceOnUse">
      <stop stop-color="#103759"/>
      <stop offset="0.48" stop-color="#101826"/>
      <stop offset="1" stop-color="#11182D"/>
    </linearGradient>
    <linearGradient id="panel" x1="360" y1="62" x2="360" y2="898" gradientUnits="userSpaceOnUse">
      <stop stop-color="#FFFFFF" stop-opacity="0.12"/>
      <stop offset="1" stop-color="#FFFFFF" stop-opacity="0.04"/>
    </linearGradient>
  </defs>
</svg>
