<svg width="720" height="960" viewBox="0 0 720 960" fill="none" xmlns="http://www.w3.org/2000/svg">
  <rect width="720" height="960" rx="44" fill="#121212"/>
  <rect width="720" height="960" rx="44" fill="url(#bg)"/>
  <circle cx="545" cy="164" r="162" fill="#F0C88B" fill-opacity="0.28"/>
  <circle cx="188" cy="794" r="214" fill="#8F8F8F" fill-opacity="0.22"/>
  <rect x="60" y="62" width="600" height="836" rx="34" fill="url(#panel)" stroke="#FFFFFF" stroke-opacity="0.18"/>
  <path d="M220 744C238 605 291 433 360 433C429 433 482 605 500 744H220Z" fill="#F0E1D1"/>
  <path d="M284 393C284 324 319 275 360 275C401 275 436 324 436 393C436 463 401 519 360 519C319 519 284 463 284 393Z" fill="#DCC3AF"/>
  <path d="M288 365C305 307 334 250 360 250C386 250 415 307 432 365C413 341 389 329 360 329C331 329 307 341 288 365Z" fill="#221A18"/>
  <path d="M250 760L294 584" stroke="#E5DED8" stroke-width="64" stroke-linecap="round"/>
  <path d="M470 760L426 584" stroke="#E5DED8" stroke-width="64" stroke-linecap="round"/>
  <path d="M244 576H476" stroke="#0F1218" stroke-width="110" stroke-linecap="round"/>
  <text x="90" y="132" fill="#F5F1EC" font-family="Arial, sans-serif" font-size="34" letter-spacing="7">GLOBAL</text>
  <text x="92" y="790" fill="#FFFFFF" font-family="Arial, sans-serif" font-size="62" font-weight="700">RELAXED TAILORING</text>
  <text x="92" y="842" fill="#F0E2D1" font-family="Arial, sans-serif" font-size="28">Oscars 2026 energy &#8226; wide-leg formal &#8226; clean lines</text>
  <defs>
    <linearGradient id="bg" x1="92" y1="54" x2="640" y2="905" gradientUnits="userSpaceOnUse">
      <stop stop-color="#3B3028"/>
      <stop offset="0.52" stop-color="#1B1C20"/>
      <stop offset="1" stop-color="#111724"/>
    </linearGradient>
    <linearGradient id="panel" x1="360" y1="62" x2="360" y2="898" gradientUnits="userSpaceOnUse">
      <stop stop-color="#FFFFFF" stop-opacity="0.12"/>
      <stop offset="1" stop-color="#FFFFFF" stop-opacity="0.04"/>
    </linearGradient>
  </defs>
</svg>
